<?xml version="1.0" encoding="UTF-8" standalone="no" ?>
<!DOCTYPE svg PUBLIC "-//W3C//DTD SVG 1.1//EN" "http://www.w3.org/Graphics/SVG/1.1/DTD/svg11.dtd">
<svg xmlns="http://www.w3.org/2000/svg" xmlns:xlink="http://www.w3.org/1999/xlink" version="1.1" width="546" height="609" viewBox="0 0 546 609" xml:space="preserve">
<desc>Created with Fabric.js 5.3.0</desc>
<defs>
</defs>
<g transform="matrix(1 0 0 1 640 512)" id="background-logo"  >
<rect style="stroke: none; stroke-width: 0; stroke-dasharray: none; stroke-linecap: butt; stroke-dashoffset: 0; stroke-linejoin: miter; stroke-miterlimit: 4; fill: rgb(255,255,255); fill-opacity: 0; fill-rule: nonzero; opacity: 1;"  paint-order="stroke"  x="-640" y="-512" rx="0" ry="0" width="1280" height="1024" />
</g>
<g transform="matrix(1.9211538461538462 0 0 1.9211538461538462 640.0095510163462 420.5779885250001)" id="logo-logo"  >
<g style=""  paint-order="stroke"   >
		<g transform="matrix(2.906 0 0 -2.906 -90.72297150000003 51.254032999999936)"  >
<path style="stroke: none; stroke-width: 1; stroke-dasharray: none; stroke-linecap: butt; stroke-dashoffset: 0; stroke-linejoin: miter; stroke-miterlimit: 4; fill: rgb(57,53,54); fill-rule: nonzero; opacity: 1;"  paint-order="stroke"  transform=" translate(-132.9955, -137.2405)" d="M 135.862 134.373 L 130.129 134.373 L 130.129 140.108 L 135.862 140.108 z" stroke-linecap="round" />
</g>
		<g transform="matrix(2.906 0 0 -2.906 -77.27997150000004 76.48903299999995)"  >
<path style="stroke: none; stroke-width: 1; stroke-dasharray: none; stroke-linecap: butt; stroke-dashoffset: 0; stroke-linejoin: miter; stroke-miterlimit: 4; fill: rgb(57,53,54); fill-rule: nonzero; opacity: 1;"  paint-order="stroke"  transform=" translate(-137.622, -128.55599999999998)" d="M 141.024 125.154 L 134.22 125.154 L 134.22 131.958 L 141.024 131.958 z" stroke-linecap="round" />
</g>
		<g transform="matrix(2.906 0 0 -2.906 -103.31197150000003 75.982033)"  >
<path style="stroke: none; stroke-width: 1; stroke-dasharray: none; stroke-linecap: butt; stroke-dashoffset: 0; stroke-linejoin: miter; stroke-miterlimit: 4; fill: rgb(81,174,229); fill-rule: nonzero; opacity: 1;"  paint-order="stroke"  transform=" translate(-128.663, -128.7305)" d="M 131.501 125.892 L 125.825 125.892 L 125.825 131.569 L 131.501 131.569 z" stroke-linecap="round" />
</g>
		<g transform="matrix(2.906 0 0 -2.906 -65.03097150000002 50.32703299999997)"  >
<path style="stroke: none; stroke-width: 1; stroke-dasharray: none; stroke-linecap: butt; stroke-dashoffset: 0; stroke-linejoin: miter; stroke-miterlimit: 4; fill: rgb(81,174,229); fill-rule: nonzero; opacity: 1;"  paint-order="stroke"  transform=" translate(-141.83749999999998, -137.5595)" d="M 138.2 133.922 L 145.475 133.922 L 145.475 141.197 L 138.2 141.197 Z" stroke-linecap="round" />
</g>
		<g transform="matrix(2.906 0 0 -2.906 -56.586971500000004 72.19603299999994)"  >
<path style="stroke: none; stroke-width: 1; stroke-dasharray: none; stroke-linecap: butt; stroke-dashoffset: 0; stroke-linejoin: miter; stroke-miterlimit: 4; fill: rgb(57,53,54); fill-rule: nonzero; opacity: 1;"  paint-order="stroke"  transform=" translate(-144.7435, -130.0335)" d="M 146.668 128.109 L 142.81900000000002 128.109 L 142.81900000000002 131.958 L 146.668 131.958 z" stroke-linecap="round" />
</g>
		<g transform="matrix(2.906 0 0 -2.906 -114.3249715 97.737033)"  >
<path style="stroke: none; stroke-width: 1; stroke-dasharray: none; stroke-linecap: butt; stroke-dashoffset: 0; stroke-linejoin: miter; stroke-miterlimit: 4; fill: rgb(81,174,229); fill-rule: nonzero; opacity: 1;"  paint-order="stroke"  transform=" translate(-124.873, -121.24350000000001)" d="M 126.432 119.685 L 123.31400000000001 119.685 L 123.31400000000001 122.802 L 126.432 122.802 z" stroke-linecap="round" />
</g>
		<g transform="matrix(2.906 0 0 -2.906 -99.05497150000002 93.27703299999996)"  >
<path style="stroke: none; stroke-width: 1; stroke-dasharray: none; stroke-linecap: butt; stroke-dashoffset: 0; stroke-linejoin: miter; stroke-miterlimit: 4; fill: rgb(57,53,54); fill-rule: nonzero; opacity: 1;"  paint-order="stroke"  transform=" translate(-130.12800000000001, -122.77850000000001)" d="M 131.562 121.345 L 128.69400000000002 121.345 L 128.69400000000002 124.212 L 131.562 124.212 z" stroke-linecap="round" />
</g>
		<g transform="matrix(2.906 0 0 -2.906 -85.3299715 95.0440329999999)"  >
<path style="stroke: none; stroke-width: 1; stroke-dasharray: none; stroke-linecap: butt; stroke-dashoffset: 0; stroke-linejoin: miter; stroke-miterlimit: 4; fill: rgb(81,174,229); fill-rule: nonzero; opacity: 1;"  paint-order="stroke"  transform=" translate(-134.85150000000002, -122.1705)" d="M 136.401 120.621 L 133.30200000000002 120.621 L 133.30200000000002 123.72 L 136.401 123.72 z" stroke-linecap="round" />
</g>
		<g transform="matrix(2.906 0 0 -2.906 -124.55997150000002 121.011033)"  >
<path style="stroke: none; stroke-width: 1; stroke-dasharray: none; stroke-linecap: butt; stroke-dashoffset: 0; stroke-linejoin: miter; stroke-miterlimit: 4; fill: rgb(81,174,229); fill-rule: nonzero; opacity: 1;"  paint-order="stroke"  transform=" translate(-121.35050000000001, -113.23400000000001)" d="M 122.268 112.316 L 120.433 112.316 L 120.433 114.152 L 122.268 114.152 z" stroke-linecap="round" />
</g>
		<g transform="matrix(2.906 0 0 -2.906 -101.13897150000003 108.00303299999996)"  >
<path style="stroke: none; stroke-width: 1; stroke-dasharray: none; stroke-linecap: butt; stroke-dashoffset: 0; stroke-linejoin: miter; stroke-miterlimit: 4; fill: rgb(57,53,54); fill-rule: nonzero; opacity: 1;"  paint-order="stroke"  transform=" translate(-129.411, -117.7105)" d="M 130.845 116.276 L 127.977 116.276 L 127.977 119.145 L 130.845 119.145 z" stroke-linecap="round" />
</g>
		<g transform="matrix(2.906 0 0 -2.906 -113.43897150000004 113.96903299999997)"  >
<path style="stroke: none; stroke-width: 1; stroke-dasharray: none; stroke-linecap: butt; stroke-dashoffset: 0; stroke-linejoin: miter; stroke-miterlimit: 4; fill: rgb(57,53,54); fill-rule: nonzero; opacity: 1;"  paint-order="stroke"  transform=" translate(-125.178, -115.6575)" d="M 126.848 113.988 L 123.508 113.988 L 123.508 117.327 L 126.848 117.327 z" stroke-linecap="round" />
</g>
		<g transform="matrix(2.906 0 0 -2.906 -116.21097150000003 125.17503299999998)"  >
<path style="stroke: none; stroke-width: 1; stroke-dasharray: none; stroke-linecap: butt; stroke-dashoffset: 0; stroke-linejoin: miter; stroke-miterlimit: 4; fill: rgb(57,53,54); fill-rule: nonzero; opacity: 1;"  paint-order="stroke"  transform=" translate(-124.224, -111.801)" d="M 124.942 111.084 L 123.506 111.084 L 123.506 112.518 L 124.94200000000001 112.518 z" stroke-linecap="round" />
</g>
		<g transform="matrix(2.906 0 0 -2.906 -123.9309715 131.03803299999998)"  >
<path style="stroke: none; stroke-width: 1; stroke-dasharray: none; stroke-linecap: butt; stroke-dashoffset: 0; stroke-linejoin: miter; stroke-miterlimit: 4; fill: rgb(57,53,54); fill-rule: nonzero; opacity: 1;"  paint-order="stroke"  transform=" translate(-121.56700000000001, -109.783)" d="M 122.284 109.066 L 120.85000000000001 109.066 L 120.85000000000001 110.5 L 122.284 110.5 z" stroke-linecap="round" />
</g>
		<g transform="matrix(2.906 0 0 -2.906 -123.9309715 109.11803299999991)"  >
<path style="stroke: none; stroke-width: 1; stroke-dasharray: none; stroke-linecap: butt; stroke-dashoffset: 0; stroke-linejoin: miter; stroke-miterlimit: 4; fill: rgb(57,53,54); fill-rule: nonzero; opacity: 1;"  paint-order="stroke"  transform=" translate(-121.56700000000001, -117.327)" d="M 122.284 116.61 L 120.85000000000001 116.61 L 120.85000000000001 118.044 L 122.284 118.044 z" stroke-linecap="round" />
</g>
		<g transform="matrix(2.906 0 0 -2.906 -132.4769715 128.28103299999992)"  >
<path style="stroke: none; stroke-width: 1; stroke-dasharray: none; stroke-linecap: butt; stroke-dashoffset: 0; stroke-linejoin: miter; stroke-miterlimit: 4; fill: rgb(81,174,229); fill-rule: nonzero; opacity: 1;"  paint-order="stroke"  transform=" translate(-118.626, -110.732)" d="M 119.343 110.015 L 117.909 110.015 L 117.909 111.449 L 119.343 111.449 z" stroke-linecap="round" />
</g>
		<g transform="matrix(2.906 0 0 -2.906 30.286028499999986 -32.637967)"  >
<path style="stroke: none; stroke-width: 1; stroke-dasharray: none; stroke-linecap: butt; stroke-dashoffset: 0; stroke-linejoin: miter; stroke-miterlimit: 4; fill: rgb(81,174,229); fill-rule: nonzero; opacity: 1;"  paint-order="stroke"  transform=" translate(35.8165, 13.268)" d="M 0 0 C -0.792 0.051 -1.576 0.111 -2.345 0.197 C -3.1140000000000003 0.28300000000000003 -3.869 0.395 -4.604 0.5509999999999999 C -5.34 0.707 -6.056 0.9069999999999999 -6.747 1.168 C -8.277 2.854 -9.972999999999999 3.915 -11.722999999999999 4.444 C -20.249 7.368 -24.076 -2.2009999999999996 -30.090999999999998 -6.3020000000000005 C -30.637999999999998 -6.575 -31.185 -6.78 -31.766 -6.849 C -32.347 -6.917 -32.961999999999996 -6.849 -33.644999999999996 -6.575 C -35.559 -6.3020000000000005 -36.925999999999995 -5.208 -38.019999999999996 -3.841 C -42.12 2.7199999999999998 -46.767999999999994 8.187999999999999 -53.178 12.416 C -53.913 12.958 -54.651999999999994 13.489 -55.391999999999996 14.014000000000001 C -56.873999999999995 15.064000000000002 -58.361 16.086000000000002 -59.824999999999996 17.104 C -60.529999999999994 17.660999999999998 -61.242999999999995 18.209 -61.977 18.727 C -63.443999999999996 19.761 -64.994 20.672 -66.725 21.310000000000002 C -65.905 18.576 -65.35799999999999 15.842000000000002 -65.631 12.835000000000003 C -66.178 8.734000000000002 -66.452 4.907000000000003 -66.532 0.7050000000000018 C -66.50099999999999 -0.2649999999999981 -66.42699999999999 -1.2219999999999982 -66.298 -2.154999999999998 C -65.643 -6.820999999999998 -63.604 -10.893999999999998 -58.568 -12.752999999999998 C -57.893 -13.035999999999998 -57.198 -13.290999999999999 -56.501 -13.532999999999998 C -55.805 -13.773999999999997 -55.105999999999995 -14.001999999999997 -54.422999999999995 -14.229999999999997 C -52.23499999999999 -14.776999999999997 -50.86899999999999 -17.783999999999995 -51.141999999999996 -20.244999999999997 C -51.961999999999996 -23.525 -54.696 -25.985999999999997 -57.584999999999994 -27.177 C -58.41199999999999 -27.698999999999998 -59.21999999999999 -28.209 -60.022999999999996 -28.709 C -64.06099999999999 -31.224 -68.095 -33.473 -71.699 -36.238 L -63.037 -36.238 L -63.037 -46.551 L -63.037 -47.245000000000005 L -63.037 -47.846000000000004 C -60.641 -46.728 -58.187 -45.918000000000006 -55.692 -45.313 C -55.049 -45.157000000000004 -54.403 -45.015 -53.755 -44.884 C -48.099000000000004 -43.138 -41.713 -43.283 -35.913000000000004 -41.648 C -35.084 -41.415000000000006 -34.265 -41.145 -33.453 -40.828 C -24.076 -37.468 -19.976000000000003 -28.173000000000002 -18.964000000000002 -19.138 C -18.705000000000002 -18.208000000000002 -18.419 -17.288 -18.099000000000004 -16.384 C -17.123000000000005 -13.667 -15.747000000000003 -11.010000000000002 -13.927000000000003 -8.743 C -13.472000000000003 -8.177 -12.989000000000003 -7.635 -12.479000000000003 -7.122 C -9.040000000000003 -3.8409999999999997 -4.666000000000003 -1.928 0.06599999999999717 -0.6719999999999997 C 0.064 -0.448 0.053 -0.225 0 0" stroke-linecap="round" />
</g>
</g>
</g>
<g transform="matrix(1.9211538461538462 0 0 1.9211538461538462 640.5313537222215 732.5924440016655)" id="text-logo"  >
<g style=""  paint-order="stroke"   >
		<g transform="matrix(1 0 0 1 0 0)" id="text-logo-path-0"  >
<path style="stroke: rgb(255,255,255); stroke-width: 0; stroke-dasharray: none; stroke-linecap: butt; stroke-dashoffset: 0; stroke-linejoin: miter; stroke-miterlimit: 4; fill: rgb(85,173,228); fill-rule: nonzero; opacity: 1;"  paint-order="stroke"  transform=" translate(-144.46499999999997, 20.650000000000002)" d="M 21.54 -37.58 L 21.54 -13.39 C 21.54 -9.85 19.71 -8.02 16.23 -8.02 C 12.69 -8.02 10.86 -9.85 10.86 -13.39 L 10.86 -37.58 C 10.86 -39.88 9.03 -41.71 6.73 -41.71 C 4.43 -41.71 2.6 -39.88 2.6 -37.58 L 2.6 -13.39 C 2.6 -5.84 8.67 0.24 16.23 0.24 C 19.88 0.24 23.25 -1.24 25.67 -3.6 C 28.14 -1.24 31.45 0.24 35.16 0.24 C 42.66 0.24 48.73 -5.84 48.73 -13.39 L 48.73 -37.58 C 48.73 -39.88 46.91 -41.71 44.6 -41.71 C 42.3 -41.71 40.47 -39.88 40.47 -37.58 L 40.47 -13.39 C 40.47 -9.85 38.65 -8.02 35.16 -8.02 C 31.62 -8.02 29.8 -9.85 29.8 -13.39 L 29.8 -37.58 C 29.8 -39.88 27.97 -41.71 25.67 -41.71 C 23.36 -41.71 21.54 -39.88 21.54 -37.58 Z M 62.19 -3.72 L 62.19 -14.63 C 62.19 -19 64.66 -21.48 69.03 -21.48 C 73.34 -21.48 75.82 -19 75.82 -14.63 L 75.82 -3.72 C 75.82 -1.42 77.64 0.41 79.95 0.41 C 82.25 0.41 84.08 -1.42 84.08 -3.72 L 84.08 -14.63 C 84.08 -23.01 77.35 -29.74 69.03 -29.74 C 66.55 -29.74 64.25 -29.15 62.19 -28.14 L 62.19 -37.58 C 62.19 -39.88 60.36 -41.71 58.06 -41.71 C 55.76 -41.71 53.93 -39.88 53.93 -37.58 L 53.93 -3.72 C 53.93 -1.42 55.76 0.41 58.06 0.41 C 60.36 0.41 62.19 -1.42 62.19 -3.72 Z M 97.53 -37.52 L 97.53 -37.58 C 97.53 -39.88 95.7 -41.71 93.4 -41.71 C 91.1 -41.71 89.27 -39.88 89.27 -37.58 L 89.27 -37.52 C 89.27 -35.22 91.1 -33.39 93.4 -33.39 C 95.7 -33.39 97.53 -35.22 97.53 -37.52 Z M 89.27 -3.72 C 89.27 -1.42 91.1 0.41 93.4 0.41 C 95.7 0.41 97.53 -1.42 97.53 -3.72 L 97.53 -25.78 C 97.53 -28.08 95.7 -29.91 93.4 -29.91 C 91.1 -29.91 89.27 -28.08 89.27 -25.78 Z M 104.14 -3.66 C 106.91 -1.12 110.51 0.24 114.34 0.24 C 121.13 0.24 126.56 -3.72 126.56 -9.44 C 126.56 -15.75 121.36 -17.41 115.29 -18.64 C 111.51 -19.41 110.98 -19.53 110.98 -20.24 C 110.98 -21.06 111.57 -21.48 114.17 -21.48 C 115.76 -21.48 116.88 -21.12 117.76 -20.41 C 118.47 -19.88 119.3 -19.59 120.24 -19.59 C 122.48 -19.59 124.31 -21.42 124.31 -23.66 C 124.31 -25.02 123.66 -26.26 122.66 -26.96 C 120.54 -28.56 117.71 -29.74 114.17 -29.74 C 107.73 -29.74 102.72 -25.37 102.72 -20.24 C 102.72 -13.98 107.68 -11.8 113.63 -10.5 C 117.88 -9.68 118.3 -9.62 118.3 -9.44 C 118.3 -8.44 117.41 -8.02 114.34 -8.02 C 112.34 -8.02 110.92 -8.44 109.74 -9.62 C 109.03 -10.33 108.03 -10.8 106.91 -10.8 C 104.67 -10.8 102.84 -8.97 102.84 -6.67 C 102.84 -5.49 103.31 -4.43 104.14 -3.66 Z M 131.75 -31.68 L 131.75 -12.04 C 131.75 -5.31 137.18 0.24 144.02 0.24 C 145.32 0.24 146.56 0 147.74 -0.35 C 149.39 -0.89 150.57 -2.42 150.57 -4.19 C 150.57 -6.43 148.74 -8.26 146.5 -8.26 C 146.08 -8.26 145.73 -8.2 145.32 -8.08 L 145.32 -8.14 C 144.96 -8.08 144.55 -8.02 144.02 -8.02 C 141.19 -8.02 140.01 -9.26 140.01 -12.04 L 140.01 -23.07 L 143.19 -23.07 C 145.49 -23.07 147.32 -24.9 147.32 -27.2 C 147.32 -29.5 145.49 -31.33 143.19 -31.33 L 140.01 -31.33 L 140.01 -31.68 C 140.01 -33.98 138.18 -35.81 135.88 -35.81 C 133.58 -35.81 131.75 -33.98 131.75 -31.68 Z M 164.02 -3.72 L 164.02 -37.58 C 164.02 -39.88 162.19 -41.71 159.89 -41.71 C 157.59 -41.71 155.76 -39.88 155.76 -37.58 L 155.76 -3.72 C 155.76 -1.42 157.59 0.41 159.89 0.41 C 162.19 0.41 164.02 -1.42 164.02 -3.72 Z M 169.21 -14.75 C 169.21 -6.49 175.88 0.24 184.2 0.24 C 186.44 0.24 188.56 -0.3 190.51 -1.18 C 191.87 -1.83 192.87 -3.25 192.87 -4.84 C 192.87 -7.08 191.04 -8.91 188.8 -8.91 C 188.15 -8.91 187.56 -8.79 187.03 -8.55 C 186.2 -8.2 185.32 -8.02 184.2 -8.02 C 182.96 -8.02 181.9 -8.2 180.95 -8.61 L 193.4 -18.59 C 196.06 -20.65 196.12 -24.43 193.46 -26.49 C 190.92 -28.5 187.68 -29.74 184.2 -29.74 C 175.88 -29.74 169.21 -23.01 169.21 -14.75 Z M 177.47 -14.75 C 177.47 -19 179.89 -21.48 184.2 -21.48 C 185.38 -21.48 186.2 -21.3 187.09 -20.83 L 177.59 -13.28 C 177.53 -13.75 177.47 -14.22 177.47 -14.75 Z M 208.86 -3.72 L 208.86 -14.63 C 208.86 -19 211.34 -21.48 215.7 -21.48 C 216.83 -21.48 217.65 -21.3 218.48 -20.95 C 219.01 -20.71 219.54 -20.59 220.19 -20.59 C 222.43 -20.59 224.26 -22.42 224.26 -24.72 C 224.26 -26.37 223.26 -27.79 221.84 -28.44 C 219.95 -29.26 217.89 -29.74 215.7 -29.74 C 207.33 -29.74 200.6 -23.01 200.6 -14.63 L 200.6 -3.72 C 200.6 -1.42 202.43 0.41 204.73 0.41 C 207.03 0.41 208.86 -1.42 208.86 -3.72 Z M 237.71 -3.72 L 237.71 -37.58 C 237.71 -39.88 235.88 -41.71 233.58 -41.71 C 231.28 -41.71 229.45 -39.88 229.45 -37.58 L 229.45 -3.72 C 229.45 -1.42 231.28 0.41 233.58 0.41 C 235.88 0.41 237.71 -1.42 237.71 -3.72 Z M 251.16 -37.52 L 251.16 -37.58 C 251.16 -39.88 249.33 -41.71 247.03 -41.71 C 244.73 -41.71 242.9 -39.88 242.9 -37.58 L 242.9 -37.52 C 242.9 -35.22 244.73 -33.39 247.03 -33.39 C 249.33 -33.39 251.16 -35.22 251.16 -37.52 Z M 242.9 -3.72 C 242.9 -1.42 244.73 0.41 247.03 0.41 C 249.33 0.41 251.16 -1.42 251.16 -3.72 L 251.16 -25.78 C 251.16 -28.08 249.33 -29.91 247.03 -29.91 C 244.73 -29.91 242.9 -28.08 242.9 -25.78 Z M 271.34 -21.48 C 275.59 -21.48 278.07 -19.06 278.07 -14.75 C 278.07 -10.44 275.59 -8.02 271.34 -8.02 C 267.09 -8.02 264.62 -10.44 264.62 -14.75 C 264.62 -19.06 267.09 -21.48 271.34 -21.48 Z M 256.36 -14.75 C 256.36 -6.43 263.08 0.24 271.34 0.24 C 279.6 0.24 286.33 -6.43 286.33 -14.75 C 286.33 -23.07 279.6 -29.74 271.34 -29.74 C 268.92 -29.74 266.62 -29.15 264.62 -28.14 L 264.62 -37.58 C 264.62 -39.88 262.79 -41.71 260.49 -41.71 C 258.18 -41.71 256.36 -39.88 256.36 -37.58 L 256.36 -16.23 C 256.36 -16.05 256.36 -15.87 256.41 -15.69 C 256.36 -15.4 256.36 -15.05 256.36 -14.75 Z" stroke-linecap="round" />
</g>
</g>
</g>
</svg>